<mxfile modified="2023-06-01T19:53:35.876Z" host="app.diagrams.net" agent="Mozilla/5.0 (X11; Ubuntu; Linux x86_64; rv:109.0) Gecko/20100101 Firefox/112.0" etag="bygnI6xu1V2tnxLVfRYZ" version="21.3.6" type="github">
  <diagram id="Ht1M8jgEwFfnCIfOTk4-" name="Page-1">
    <mxGraphModel dx="1674" dy="822" grid="1" gridSize="10" guides="1" tooltips="1" connect="1" arrows="1" fold="1" page="1" pageScale="1" pageWidth="1169" pageHeight="827" math="0" shadow="0">
      <root>
        <mxCell id="0" />
        <mxCell id="1" parent="0" />
        <mxCell id="UEzPUAAOIrF-is8g5C7q-124" style="edgeStyle=orthogonalEdgeStyle;rounded=0;orthogonalLoop=1;jettySize=auto;html=1;startArrow=open;startFill=0;endArrow=open;endFill=0;strokeWidth=2;strokeColor=#808080;" parent="1" source="UEzPUAAOIrF-is8g5C7q-110" target="UEzPUAAOIrF-is8g5C7q-111" edge="1">
          <mxGeometry relative="1" as="geometry">
            <Array as="points">
              <mxPoint x="300.5" y="241.5" />
              <mxPoint x="300.5" y="101.5" />
            </Array>
          </mxGeometry>
        </mxCell>
        <mxCell id="UEzPUAAOIrF-is8g5C7q-127" style="edgeStyle=orthogonalEdgeStyle;rounded=0;orthogonalLoop=1;jettySize=auto;html=1;startArrow=open;startFill=0;endArrow=open;endFill=0;strokeWidth=2;strokeColor=#808080;" parent="1" source="UEzPUAAOIrF-is8g5C7q-110" target="UEzPUAAOIrF-is8g5C7q-118" edge="1">
          <mxGeometry relative="1" as="geometry">
            <Array as="points">
              <mxPoint x="80" y="260" />
            </Array>
            <mxPoint x="580" y="250" as="targetPoint" />
          </mxGeometry>
        </mxCell>
        <mxCell id="UEzPUAAOIrF-is8g5C7q-125" style="edgeStyle=orthogonalEdgeStyle;rounded=0;orthogonalLoop=1;jettySize=auto;html=1;startArrow=open;startFill=0;endArrow=open;endFill=0;strokeWidth=2;strokeColor=#808080;" parent="1" source="UEzPUAAOIrF-is8g5C7q-111" target="UEzPUAAOIrF-is8g5C7q-112" edge="1">
          <mxGeometry relative="1" as="geometry">
            <Array as="points">
              <mxPoint x="530.5" y="101.5" />
              <mxPoint x="530.5" y="101.5" />
            </Array>
          </mxGeometry>
        </mxCell>
        <mxCell id="UEzPUAAOIrF-is8g5C7q-137" value="" style="edgeStyle=orthogonalEdgeStyle;rounded=0;orthogonalLoop=1;jettySize=auto;html=1;startArrow=none;startFill=0;endArrow=open;endFill=0;strokeWidth=2;strokeColor=#808080;" parent="1" source="UEzPUAAOIrF-is8g5C7q-117" target="UEzPUAAOIrF-is8g5C7q-118" edge="1">
          <mxGeometry relative="1" as="geometry">
            <Array as="points">
              <mxPoint x="710" y="241" />
              <mxPoint x="710" y="241" />
            </Array>
          </mxGeometry>
        </mxCell>
        <mxCell id="UEzPUAAOIrF-is8g5C7q-143" style="edgeStyle=orthogonalEdgeStyle;rounded=0;orthogonalLoop=1;jettySize=auto;html=1;startArrow=open;startFill=0;endArrow=open;endFill=0;strokeWidth=2;strokeColor=#808080;" parent="1" source="UEzPUAAOIrF-is8g5C7q-111" target="UEzPUAAOIrF-is8g5C7q-112" edge="1">
          <mxGeometry relative="1" as="geometry">
            <mxPoint x="500.5" y="111.5" as="sourcePoint" />
            <mxPoint x="578.5" y="111.5" as="targetPoint" />
            <Array as="points">
              <mxPoint x="530.5" y="121.5" />
              <mxPoint x="530.5" y="121.5" />
            </Array>
          </mxGeometry>
        </mxCell>
        <mxCell id="UEzPUAAOIrF-is8g5C7q-110" value="User Interface data lake" style="outlineConnect=0;gradientColor=none;fontColor=#545B64;strokeColor=none;fillColor=#879196;dashed=0;verticalLabelPosition=bottom;verticalAlign=top;align=center;html=1;fontSize=12;fontStyle=0;aspect=fixed;shape=mxgraph.aws4.illustration_notification;pointerEvents=1;labelBackgroundColor=#ffffff;" parent="1" vertex="1">
          <mxGeometry x="30" y="120.5" width="100" height="81" as="geometry" />
        </mxCell>
        <mxCell id="UEzPUAAOIrF-is8g5C7q-111" value="Amazon &lt;br&gt;Cognito" style="outlineConnect=0;fontColor=#232F3E;gradientColor=#F54749;gradientDirection=north;fillColor=#C7131F;strokeColor=#ffffff;dashed=0;verticalLabelPosition=bottom;verticalAlign=top;align=center;html=1;fontSize=12;fontStyle=0;aspect=fixed;shape=mxgraph.aws4.resourceIcon;resIcon=mxgraph.aws4.cognito;labelBackgroundColor=#ffffff;" parent="1" vertex="1">
          <mxGeometry x="412.5" y="74.5" width="78" height="78" as="geometry" />
        </mxCell>
        <mxCell id="UEzPUAAOIrF-is8g5C7q-112" value="Active&lt;br&gt;Directory" style="outlineConnect=0;fontColor=#232F3E;gradientColor=#F54749;gradientDirection=north;fillColor=#C7131F;strokeColor=#ffffff;dashed=0;verticalLabelPosition=bottom;verticalAlign=top;align=center;html=1;fontSize=12;fontStyle=0;aspect=fixed;shape=mxgraph.aws4.resourceIcon;resIcon=mxgraph.aws4.cloud_directory;labelBackgroundColor=#ffffff;" parent="1" vertex="1">
          <mxGeometry x="568.5" y="74.5" width="78" height="78" as="geometry" />
        </mxCell>
        <mxCell id="UEzPUAAOIrF-is8g5C7q-116" value="Amazon S3" style="outlineConnect=0;fontColor=#232F3E;gradientColor=#60A337;gradientDirection=north;fillColor=#277116;strokeColor=#ffffff;dashed=0;verticalLabelPosition=bottom;verticalAlign=top;align=center;html=1;fontSize=12;fontStyle=0;aspect=fixed;shape=mxgraph.aws4.resourceIcon;resIcon=mxgraph.aws4.s3;labelBackgroundColor=#ffffff;" parent="1" vertex="1">
          <mxGeometry x="620.0000000000002" y="570" width="78" height="78" as="geometry" />
        </mxCell>
        <mxCell id="UEzPUAAOIrF-is8g5C7q-117" value="AWS Glue" style="outlineConnect=0;fontColor=#232F3E;gradientColor=#945DF2;gradientDirection=north;fillColor=#5A30B5;strokeColor=#ffffff;dashed=0;verticalLabelPosition=bottom;verticalAlign=top;align=center;html=1;fontSize=12;fontStyle=0;aspect=fixed;shape=mxgraph.aws4.resourceIcon;resIcon=mxgraph.aws4.glue;labelBackgroundColor=#ffffff;" parent="1" vertex="1">
          <mxGeometry x="740.0000000000002" y="201.5" width="78" height="78" as="geometry" />
        </mxCell>
        <mxCell id="UEzPUAAOIrF-is8g5C7q-118" value="Amazon Athena" style="outlineConnect=0;fontColor=#232F3E;gradientColor=#945DF2;gradientDirection=north;fillColor=#5A30B5;strokeColor=#ffffff;dashed=0;verticalLabelPosition=bottom;verticalAlign=top;align=center;html=1;fontSize=12;fontStyle=0;aspect=fixed;shape=mxgraph.aws4.resourceIcon;resIcon=mxgraph.aws4.athena;labelBackgroundColor=#ffffff;" parent="1" vertex="1">
          <mxGeometry x="482" y="201.5" width="78" height="78" as="geometry" />
        </mxCell>
        <mxCell id="UEzPUAAOIrF-is8g5C7q-122" value="IAM Roles" style="outlineConnect=0;fontColor=#232F3E;gradientColor=none;fillColor=#C7131F;strokeColor=none;dashed=0;verticalLabelPosition=bottom;verticalAlign=top;align=center;html=1;fontSize=12;fontStyle=0;aspect=fixed;pointerEvents=1;shape=mxgraph.aws4.role;labelBackgroundColor=#ffffff;" parent="1" vertex="1">
          <mxGeometry x="250" y="344" width="106.36" height="60" as="geometry" />
        </mxCell>
        <mxCell id="UEzPUAAOIrF-is8g5C7q-123" value="Amazon&lt;br&gt;CloudWatch Logs&lt;br&gt;" style="outlineConnect=0;fontColor=#232F3E;gradientColor=none;gradientDirection=north;fillColor=#F34482;strokeColor=none;dashed=0;verticalLabelPosition=bottom;verticalAlign=top;align=center;html=1;fontSize=12;fontStyle=0;aspect=fixed;shape=mxgraph.aws4.cloudwatch;labelBackgroundColor=#ffffff;" parent="1" vertex="1">
          <mxGeometry x="432" y="330" width="88" height="88" as="geometry" />
        </mxCell>
        <mxCell id="CeeiwtTvapGlpgdEnGXb-1" value="Buckets" style="swimlane;startSize=20;horizontal=1;containerType=tree;newEdgeStyle={&quot;edgeStyle&quot;:&quot;elbowEdgeStyle&quot;,&quot;startArrow&quot;:&quot;none&quot;,&quot;endArrow&quot;:&quot;none&quot;};" vertex="1" parent="1">
          <mxGeometry x="130" y="480" width="390" height="220" as="geometry">
            <mxRectangle x="40" y="450" width="90" height="30" as="alternateBounds" />
          </mxGeometry>
        </mxCell>
        <mxCell id="CeeiwtTvapGlpgdEnGXb-2" value="" style="edgeStyle=elbowEdgeStyle;elbow=vertical;sourcePerimeterSpacing=0;targetPerimeterSpacing=0;startArrow=none;endArrow=none;rounded=0;curved=0;" edge="1" parent="CeeiwtTvapGlpgdEnGXb-1" source="CeeiwtTvapGlpgdEnGXb-4" target="CeeiwtTvapGlpgdEnGXb-5">
          <mxGeometry relative="1" as="geometry">
            <Array as="points">
              <mxPoint x="80" y="90" />
              <mxPoint x="110" y="100" />
              <mxPoint x="90" y="100" />
            </Array>
          </mxGeometry>
        </mxCell>
        <UserObject label="Frotas" treeRoot="1" id="CeeiwtTvapGlpgdEnGXb-4">
          <mxCell style="whiteSpace=wrap;html=1;align=center;treeFolding=1;treeMoving=1;newEdgeStyle={&quot;edgeStyle&quot;:&quot;elbowEdgeStyle&quot;,&quot;startArrow&quot;:&quot;none&quot;,&quot;endArrow&quot;:&quot;none&quot;};" vertex="1" parent="CeeiwtTvapGlpgdEnGXb-1">
            <mxGeometry x="30" y="30" width="80" height="40" as="geometry" />
          </mxCell>
        </UserObject>
        <mxCell id="CeeiwtTvapGlpgdEnGXb-51" style="edgeStyle=elbowEdgeStyle;rounded=0;orthogonalLoop=1;jettySize=auto;html=1;startArrow=none;endArrow=none;exitX=1;exitY=0.5;exitDx=0;exitDy=0;entryX=0;entryY=0.5;entryDx=0;entryDy=0;" edge="1" parent="CeeiwtTvapGlpgdEnGXb-1" source="CeeiwtTvapGlpgdEnGXb-5" target="CeeiwtTvapGlpgdEnGXb-6">
          <mxGeometry relative="1" as="geometry" />
        </mxCell>
        <mxCell id="CeeiwtTvapGlpgdEnGXb-54" style="edgeStyle=elbowEdgeStyle;rounded=0;orthogonalLoop=1;jettySize=auto;html=1;startArrow=none;endArrow=none;exitX=1;exitY=0.75;exitDx=0;exitDy=0;entryX=0;entryY=0.5;entryDx=0;entryDy=0;" edge="1" parent="CeeiwtTvapGlpgdEnGXb-1" source="CeeiwtTvapGlpgdEnGXb-5" target="CeeiwtTvapGlpgdEnGXb-48">
          <mxGeometry relative="1" as="geometry" />
        </mxCell>
        <mxCell id="CeeiwtTvapGlpgdEnGXb-5" value="Caminhoes" style="whiteSpace=wrap;html=1;align=center;verticalAlign=middle;treeFolding=1;treeMoving=1;newEdgeStyle={&quot;edgeStyle&quot;:&quot;elbowEdgeStyle&quot;,&quot;startArrow&quot;:&quot;none&quot;,&quot;endArrow&quot;:&quot;none&quot;};" vertex="1" parent="CeeiwtTvapGlpgdEnGXb-1">
          <mxGeometry x="110" y="80" width="100" height="40" as="geometry" />
        </mxCell>
        <mxCell id="CeeiwtTvapGlpgdEnGXb-6" value="GPSs" style="whiteSpace=wrap;html=1;align=center;verticalAlign=middle;treeFolding=1;treeMoving=1;newEdgeStyle={&quot;edgeStyle&quot;:&quot;elbowEdgeStyle&quot;,&quot;startArrow&quot;:&quot;none&quot;,&quot;endArrow&quot;:&quot;none&quot;};" vertex="1" parent="CeeiwtTvapGlpgdEnGXb-1">
          <mxGeometry x="270" y="50" width="100" height="30" as="geometry" />
        </mxCell>
        <mxCell id="CeeiwtTvapGlpgdEnGXb-48" value="Financeiro" style="whiteSpace=wrap;html=1;align=center;verticalAlign=middle;treeFolding=1;treeMoving=1;newEdgeStyle={&quot;edgeStyle&quot;:&quot;elbowEdgeStyle&quot;,&quot;startArrow&quot;:&quot;none&quot;,&quot;endArrow&quot;:&quot;none&quot;};" vertex="1" parent="CeeiwtTvapGlpgdEnGXb-1">
          <mxGeometry x="270" y="110" width="100" height="30" as="geometry" />
        </mxCell>
        <mxCell id="CeeiwtTvapGlpgdEnGXb-56" value="" style="endArrow=none;html=1;rounded=0;exitX=0.84;exitY=1.075;exitDx=0;exitDy=0;exitPerimeter=0;" edge="1" parent="CeeiwtTvapGlpgdEnGXb-1" source="CeeiwtTvapGlpgdEnGXb-5" target="CeeiwtTvapGlpgdEnGXb-62">
          <mxGeometry width="50" height="50" relative="1" as="geometry">
            <mxPoint x="520" y="-20" as="sourcePoint" />
            <mxPoint x="280" y="190" as="targetPoint" />
            <Array as="points" />
          </mxGeometry>
        </mxCell>
        <mxCell id="CeeiwtTvapGlpgdEnGXb-62" value="Tageamentos" style="whiteSpace=wrap;html=1;align=center;verticalAlign=middle;treeFolding=1;treeMoving=1;newEdgeStyle={&quot;edgeStyle&quot;:&quot;elbowEdgeStyle&quot;,&quot;startArrow&quot;:&quot;none&quot;,&quot;endArrow&quot;:&quot;none&quot;};" vertex="1" parent="CeeiwtTvapGlpgdEnGXb-1">
          <mxGeometry x="140" y="170" width="110" height="30" as="geometry" />
        </mxCell>
        <mxCell id="CeeiwtTvapGlpgdEnGXb-10" value="" style="endArrow=classic;startArrow=classic;html=1;rounded=0;" edge="1" parent="1" target="UEzPUAAOIrF-is8g5C7q-116">
          <mxGeometry width="50" height="50" relative="1" as="geometry">
            <mxPoint x="520" y="610" as="sourcePoint" />
            <mxPoint x="640" y="430" as="targetPoint" />
          </mxGeometry>
        </mxCell>
        <mxCell id="CeeiwtTvapGlpgdEnGXb-12" value="SFTP" style="shape=process;whiteSpace=wrap;html=1;backgroundOutline=1;" vertex="1" parent="1">
          <mxGeometry x="930" y="201.5" width="160" height="27" as="geometry" />
        </mxCell>
        <mxCell id="CeeiwtTvapGlpgdEnGXb-14" value="Fila - GPS" style="shape=process;whiteSpace=wrap;html=1;backgroundOutline=1;" vertex="1" parent="1">
          <mxGeometry x="930" y="249.5" width="160" height="30" as="geometry" />
        </mxCell>
        <mxCell id="CeeiwtTvapGlpgdEnGXb-18" value="Rest - Taqueamento" style="shape=process;whiteSpace=wrap;html=1;backgroundOutline=1;" vertex="1" parent="1">
          <mxGeometry x="930" y="300" width="160" height="30" as="geometry" />
        </mxCell>
        <mxCell id="CeeiwtTvapGlpgdEnGXb-19" value="EC2" style="swimlane;startSize=20;horizontal=1;containerType=tree;newEdgeStyle={&quot;edgeStyle&quot;:&quot;elbowEdgeStyle&quot;,&quot;startArrow&quot;:&quot;none&quot;,&quot;endArrow&quot;:&quot;none&quot;};" vertex="1" parent="1">
          <mxGeometry x="910" y="380" width="190" height="310" as="geometry">
            <mxRectangle x="910" y="380" width="90" height="30" as="alternateBounds" />
          </mxGeometry>
        </mxCell>
        <mxCell id="CeeiwtTvapGlpgdEnGXb-20" value="" style="edgeStyle=elbowEdgeStyle;elbow=vertical;sourcePerimeterSpacing=0;targetPerimeterSpacing=0;startArrow=none;endArrow=none;rounded=0;curved=0;" edge="1" parent="CeeiwtTvapGlpgdEnGXb-19" source="CeeiwtTvapGlpgdEnGXb-22" target="CeeiwtTvapGlpgdEnGXb-23">
          <mxGeometry relative="1" as="geometry">
            <Array as="points">
              <mxPoint x="70" y="100" />
            </Array>
          </mxGeometry>
        </mxCell>
        <UserObject label="Docker-compose" treeRoot="1" id="CeeiwtTvapGlpgdEnGXb-22">
          <mxCell style="whiteSpace=wrap;html=1;align=center;treeFolding=1;treeMoving=1;newEdgeStyle={&quot;edgeStyle&quot;:&quot;elbowEdgeStyle&quot;,&quot;startArrow&quot;:&quot;none&quot;,&quot;endArrow&quot;:&quot;none&quot;};" vertex="1" parent="CeeiwtTvapGlpgdEnGXb-19">
            <mxGeometry x="20" y="34" width="120" height="40" as="geometry" />
          </mxCell>
        </UserObject>
        <mxCell id="CeeiwtTvapGlpgdEnGXb-23" value="Airflow" style="whiteSpace=wrap;html=1;align=center;verticalAlign=middle;treeFolding=1;treeMoving=1;newEdgeStyle={&quot;edgeStyle&quot;:&quot;elbowEdgeStyle&quot;,&quot;startArrow&quot;:&quot;none&quot;,&quot;endArrow&quot;:&quot;none&quot;};" vertex="1" parent="CeeiwtTvapGlpgdEnGXb-19">
          <mxGeometry x="20" y="160" width="80" height="50" as="geometry" />
        </mxCell>
        <mxCell id="CeeiwtTvapGlpgdEnGXb-35" style="edgeStyle=elbowEdgeStyle;rounded=0;orthogonalLoop=1;jettySize=auto;html=1;startArrow=none;endArrow=none;exitX=0.75;exitY=0;exitDx=0;exitDy=0;" edge="1" parent="CeeiwtTvapGlpgdEnGXb-19" source="CeeiwtTvapGlpgdEnGXb-23" target="CeeiwtTvapGlpgdEnGXb-23">
          <mxGeometry relative="1" as="geometry" />
        </mxCell>
        <mxCell id="CeeiwtTvapGlpgdEnGXb-39" value="&#xa;&#xa;&#xa;RBAC , Libs , Dags&#xa;" style="swimlane;startSize=0;" vertex="1" collapsed="1" parent="CeeiwtTvapGlpgdEnGXb-19">
          <mxGeometry x="20" y="230" width="150" height="70" as="geometry">
            <mxRectangle x="20" y="230" width="130" height="50" as="alternateBounds" />
          </mxGeometry>
        </mxCell>
        <mxCell id="CeeiwtTvapGlpgdEnGXb-30" value="" style="endArrow=classic;html=1;rounded=0;exitX=0;exitY=0.5;exitDx=0;exitDy=0;entryX=0;entryY=0.5;entryDx=0;entryDy=0;entryPerimeter=0;" edge="1" parent="1" source="CeeiwtTvapGlpgdEnGXb-23" target="CeeiwtTvapGlpgdEnGXb-14">
          <mxGeometry width="50" height="50" relative="1" as="geometry">
            <mxPoint x="590" y="450" as="sourcePoint" />
            <mxPoint x="930" y="240" as="targetPoint" />
            <Array as="points">
              <mxPoint x="880" y="565" />
              <mxPoint x="880" y="400" />
              <mxPoint x="880" y="265" />
            </Array>
          </mxGeometry>
        </mxCell>
        <mxCell id="CeeiwtTvapGlpgdEnGXb-31" value="" style="endArrow=classic;html=1;rounded=0;exitX=1;exitY=0.5;exitDx=0;exitDy=0;entryX=1;entryY=0.5;entryDx=0;entryDy=0;" edge="1" parent="1" source="CeeiwtTvapGlpgdEnGXb-23" target="CeeiwtTvapGlpgdEnGXb-18">
          <mxGeometry width="50" height="50" relative="1" as="geometry">
            <mxPoint x="590" y="450" as="sourcePoint" />
            <mxPoint x="1110" y="265" as="targetPoint" />
            <Array as="points">
              <mxPoint x="1120" y="565" />
              <mxPoint x="1120" y="450" />
              <mxPoint x="1120" y="350" />
              <mxPoint x="1120" y="315" />
            </Array>
          </mxGeometry>
        </mxCell>
        <mxCell id="CeeiwtTvapGlpgdEnGXb-34" value="" style="endArrow=classic;html=1;rounded=0;exitX=1;exitY=0.75;exitDx=0;exitDy=0;entryX=1;entryY=0.5;entryDx=0;entryDy=0;" edge="1" parent="1" source="CeeiwtTvapGlpgdEnGXb-23" target="CeeiwtTvapGlpgdEnGXb-12">
          <mxGeometry width="50" height="50" relative="1" as="geometry">
            <mxPoint x="590" y="450" as="sourcePoint" />
            <mxPoint x="640" y="400" as="targetPoint" />
            <Array as="points">
              <mxPoint x="1150" y="578" />
              <mxPoint x="1150" y="215" />
            </Array>
          </mxGeometry>
        </mxCell>
        <mxCell id="CeeiwtTvapGlpgdEnGXb-46" value="" style="endArrow=classic;html=1;rounded=0;exitX=0;exitY=0.75;exitDx=0;exitDy=0;entryX=1.026;entryY=0.154;entryDx=0;entryDy=0;entryPerimeter=0;" edge="1" parent="1" source="CeeiwtTvapGlpgdEnGXb-23" target="UEzPUAAOIrF-is8g5C7q-116">
          <mxGeometry width="50" height="50" relative="1" as="geometry">
            <mxPoint x="590" y="450" as="sourcePoint" />
            <mxPoint x="640" y="400" as="targetPoint" />
          </mxGeometry>
        </mxCell>
        <mxCell id="CeeiwtTvapGlpgdEnGXb-47" value="" style="endArrow=classic;html=1;rounded=0;" edge="1" parent="1" source="UEzPUAAOIrF-is8g5C7q-116">
          <mxGeometry width="50" height="50" relative="1" as="geometry">
            <mxPoint x="660" y="560" as="sourcePoint" />
            <mxPoint x="740" y="260" as="targetPoint" />
            <Array as="points">
              <mxPoint x="660" y="260" />
              <mxPoint x="720" y="260" />
            </Array>
          </mxGeometry>
        </mxCell>
        <mxCell id="CeeiwtTvapGlpgdEnGXb-65" value="" style="endArrow=classic;startArrow=classic;html=1;rounded=0;exitX=0.5;exitY=1;exitDx=0;exitDy=0;" edge="1" parent="1" source="CeeiwtTvapGlpgdEnGXb-19" target="UEzPUAAOIrF-is8g5C7q-110">
          <mxGeometry width="50" height="50" relative="1" as="geometry">
            <mxPoint x="990" y="730" as="sourcePoint" />
            <mxPoint x="640" y="430" as="targetPoint" />
            <Array as="points">
              <mxPoint x="1005" y="740" />
              <mxPoint x="900" y="740" />
              <mxPoint x="780" y="740" />
              <mxPoint x="560" y="740" />
              <mxPoint x="80" y="740" />
            </Array>
          </mxGeometry>
        </mxCell>
      </root>
    </mxGraphModel>
  </diagram>
</mxfile>
